<svg width="34" height="33" viewBox="0 0 34 33" fill="none" xmlns="http://www.w3.org/2000/svg">
<path d="M26.97 27.5521C25.8054 26.0102 24.2987 24.7598 22.5686 23.8994C20.8385 23.0389 18.9322 22.592 17 22.5937C15.0677 22.592 13.1615 23.0389 11.4313 23.8994C9.70123 24.7598 8.19455 26.0102 7.02998 27.5521M26.97 27.5521C29.2425 25.5307 30.8452 22.8663 31.5686 19.9122C32.2921 16.9581 32.1004 13.8539 31.0191 11.0112C29.9378 8.16853 28.0179 5.72171 25.514 3.99524C23.0101 2.26878 20.0405 1.34424 16.9991 1.34424C13.9577 1.34424 10.9882 2.26878 8.48432 3.99524C5.98044 5.72171 4.06053 8.16853 2.97921 11.0112C1.89788 13.8539 1.70623 16.9581 2.42968 19.9122C3.15312 22.8663 4.75748 25.5307 7.02998 27.5521M26.97 27.5521C24.2267 29.999 20.676 31.349 17 31.3437C13.3234 31.3494 9.77371 29.9994 7.02998 27.5521M22 12.5937C22 13.9198 21.4732 15.1916 20.5355 16.1293C19.5978 17.067 18.3261 17.5937 17 17.5937C15.6739 17.5937 14.4021 17.067 13.4644 16.1293C12.5268 15.1916 12 13.9198 12 12.5937C12 11.2677 12.5268 9.99589 13.4644 9.05821C14.4021 8.12053 15.6739 7.59375 17 7.59375C18.3261 7.59375 19.5978 8.12053 20.5355 9.05821C21.4732 9.99589 22 11.2677 22 12.5937Z" stroke="#616161" stroke-width="2.5" stroke-linecap="round" stroke-linejoin="round"/>
</svg>
